<svg width="23" height="21" viewBox="0 0 23 21" fill="none" xmlns="http://www.w3.org/2000/svg">
<path d="M9.07775 7.98145H1.27269C1.10491 7.98145 0.938871 7.94827 0.783954 7.88383C0.629036 7.81939 0.488373 7.72497 0.370088 7.60597C0.251803 7.48697 0.15806 7.34576 0.0945516 7.19045C0.0310432 7.03515 -0.00098756 6.86883 2.31952e-05 6.70105C-0.00098756 6.53326 0.0310432 6.36694 0.0945516 6.21164C0.15806 6.05634 0.251803 5.91511 0.370088 5.79611C0.488373 5.67711 0.629036 5.58268 0.783954 5.51824C0.938871 5.4538 1.10491 5.42064 1.27269 5.42064H9.07775C9.45667 5.42065 9.82026 5.27063 10.0889 5.00341C10.3576 4.73618 10.5096 4.37347 10.5116 3.99455C10.5116 3.6143 10.3604 3.24964 10.0915 2.98076C9.82266 2.71188 9.458 2.56081 9.07775 2.56081L6.71641 2.56081C6.37682 2.56081 6.05112 2.4259 5.81099 2.18578C5.57087 1.94566 5.43587 1.62 5.43587 1.28042C5.43587 0.940831 5.57087 0.615148 5.81099 0.375025C6.05112 0.134903 6.37682 0 6.71641 0L9.07775 0C10.1358 0.00203089 11.15 0.423786 11.8975 1.17269C12.645 1.9216 13.0648 2.93646 13.0648 3.99455C13.0628 5.05132 12.6419 6.06423 11.8947 6.81147C11.1474 7.55872 10.1345 7.97942 9.07775 7.98145Z" fill="#B9B9B9"/>
<path d="M18.4318 11.6694H1.27269C1.10491 11.6694 0.938871 11.6362 0.783954 11.5718C0.629036 11.5074 0.488373 11.4129 0.370088 11.2939C0.251802 11.1749 0.15806 11.0337 0.0945516 10.8784C0.0310432 10.7231 -0.00098756 10.5568 2.31952e-05 10.389C-0.00098756 10.2212 0.0310432 10.0549 0.0945516 9.89959C0.15806 9.74429 0.251802 9.60308 0.370088 9.48408C0.488373 9.36508 0.629036 9.27064 0.783954 9.2062C0.938871 9.14176 1.10491 9.10859 1.27269 9.1086H18.4318C18.8554 9.1086 19.2617 8.94083 19.562 8.64197C19.8623 8.34311 20.032 7.9375 20.0341 7.51384C20.032 7.09018 19.8623 6.68457 19.562 6.38571C19.2617 6.08686 18.8554 5.91908 18.4318 5.91908H16.2389C15.8993 5.91908 15.5736 5.78418 15.3335 5.54406C15.0933 5.30394 14.9585 4.97825 14.9585 4.63867C14.9585 4.47052 14.9915 4.30403 15.0559 4.14869C15.1202 3.99334 15.2146 3.8522 15.3335 3.7333C15.4524 3.6144 15.5935 3.52008 15.7488 3.45573C15.9042 3.39138 16.0707 3.35828 16.2389 3.35828H18.4699C19.0157 3.35828 19.5561 3.46576 20.0603 3.6746C20.5644 3.88343 21.0225 4.18952 21.4084 4.5754C21.7942 4.96128 22.1005 5.4194 22.3093 5.92358C22.5181 6.42775 22.6256 6.96812 22.6256 7.51384C22.6257 8.0628 22.5168 8.60632 22.3055 9.11301C22.0943 9.6197 21.7848 10.0795 21.3949 10.4659C21.0049 10.8523 20.5423 11.1576 20.0337 11.3642C19.5251 11.5707 18.9807 11.6745 18.4318 11.6694Z" fill="#B9B9B9"/>
<path d="M11.5083 20.8698H8.26518C7.92559 20.8698 7.59989 20.7349 7.35976 20.4947C7.11964 20.2546 6.98464 19.9289 6.98464 19.5894C6.98464 19.4216 7.01791 19.2554 7.08235 19.1005C7.14679 18.9456 7.24114 18.805 7.36014 18.6867C7.47913 18.5684 7.62039 18.4748 7.77569 18.4113C7.93099 18.3478 8.09739 18.3156 8.26518 18.3166H11.5083C11.8995 18.3146 12.2738 18.1578 12.5497 17.8805C12.8255 17.6032 12.9804 17.228 12.9804 16.8369C12.9804 16.4465 12.8253 16.072 12.5493 15.7959C12.2732 15.5199 11.8988 15.3648 11.5083 15.3648H1.27269C0.935143 15.3648 0.611393 15.2307 0.372708 14.992C0.134024 14.7533 2.31952e-05 14.4296 2.31952e-05 14.092C-0.000987561 13.9243 0.0310432 13.7579 0.0945516 13.6026C0.15806 13.4473 0.251802 13.3061 0.370088 13.1871C0.488373 13.0681 0.629036 12.9737 0.783954 12.9093C0.938871 12.8448 1.10491 12.8116 1.27269 12.8116H11.5083C12.5766 12.8116 13.6012 13.2355 14.3573 13.9901C15.1134 14.7448 15.5392 15.7686 15.5412 16.8369C15.5392 17.9058 15.1135 18.9304 14.3577 19.6863C13.6018 20.4422 12.5773 20.8677 11.5083 20.8698Z" fill="#B9B9B9"/>
</svg>
